<svg xmlns="http://www.w3.org/2000/svg" xmlns:svg="http://www.w3.org/2000/svg" xmlns:xlink="http://www.w3.org/1999/xlink" id="svg12862" width="167.002" height="195.678" version="1.1"><defs id="defs12864"><linearGradient id="linearGradient5817" x1="0" x2="1" y1="0" y2="0" gradientTransform="matrix(-8.0570374,4.5579987,4.5579987,8.0570374,40.659759,36.91803)" gradientUnits="userSpaceOnUse" spreadMethod="pad"><stop id="stop5819" offset="0" style="stop-opacity:1;stop-color:#fff"/><stop id="stop5821" offset=".2" style="stop-opacity:1;stop-color:#e8ec8f"/><stop id="stop5823" offset=".76" style="stop-opacity:1;stop-color:#abcd03"/><stop id="stop5825" offset="1" style="stop-opacity:1;stop-color:#8fc41e"/></linearGradient><linearGradient id="linearGradient5841" x1="0" x2="1" y1="0" y2="0" gradientTransform="matrix(-7.5123444,5.0242004,5.0242004,7.5123444,39.975677,39.921158)" gradientUnits="userSpaceOnUse" spreadMethod="pad"><stop id="stop5843" offset="0" style="stop-opacity:1;stop-color:#e5eb91"/><stop id="stop5845" offset=".2" style="stop-opacity:1;stop-color:#c8db58"/><stop id="stop5847" offset=".4" style="stop-opacity:1;stop-color:#a2c80f"/><stop id="stop5849" offset="1" style="stop-opacity:1;stop-color:#66b22f"/></linearGradient><linearGradient id="linearGradient5865" x1="0" x2="1" y1="0" y2="0" gradientTransform="matrix(-7.5105133,5.0229645,5.0229645,7.5105133,40.999466,41.453293)" gradientUnits="userSpaceOnUse" spreadMethod="pad"><stop id="stop5867" offset="0" style="stop-opacity:1;stop-color:#e5eb91"/><stop id="stop5869" offset=".2" style="stop-opacity:1;stop-color:#c8db58"/><stop id="stop5871" offset=".4" style="stop-opacity:1;stop-color:#a2c80f"/><stop id="stop5873" offset="1" style="stop-opacity:1;stop-color:#66b22f"/></linearGradient><linearGradient id="linearGradient5889" x1="0" x2="1" y1="0" y2="0" gradientTransform="matrix(-7.5132141,5.0247803,5.0247803,7.5132141,37.290894,35.906143)" gradientUnits="userSpaceOnUse" spreadMethod="pad"><stop id="stop5891" offset="0" style="stop-opacity:1;stop-color:#e5eb91"/><stop id="stop5893" offset=".2" style="stop-opacity:1;stop-color:#c8db58"/><stop id="stop5895" offset=".4" style="stop-opacity:1;stop-color:#a2c80f"/><stop id="stop5897" offset="1" style="stop-opacity:1;stop-color:#66b22f"/></linearGradient><linearGradient id="linearGradient5913" x1="0" x2="1" y1="0" y2="0" gradientTransform="matrix(-7.5122528,5.0241241,5.0241241,7.5122528,36.364624,34.523468)" gradientUnits="userSpaceOnUse" spreadMethod="pad"><stop id="stop5915" offset="0" style="stop-opacity:1;stop-color:#e5eb91"/><stop id="stop5917" offset=".2" style="stop-opacity:1;stop-color:#c8db58"/><stop id="stop5919" offset=".4" style="stop-opacity:1;stop-color:#a2c80f"/><stop id="stop5921" offset="1" style="stop-opacity:1;stop-color:#66b22f"/></linearGradient><clipPath id="clipPath5929" clipPathUnits="userSpaceOnUse"><path id="path5931" d="m 22.978,20.551 186.077,0 0,34.96 -186.077,0 0,-34.96 z"/></clipPath><clipPath id="clipPath5949" clipPathUnits="userSpaceOnUse"><path id="path5951" d="m 27.575,20.551 175.765,0 0,28.085 -175.765,0 0,-28.085 z"/></clipPath><linearGradient id="linearGradient13475" x1="0" x2="1" y1="0" y2="0" gradientTransform="matrix(-8.0570374,4.5579987,4.5579987,8.0570374,40.659759,36.91803)" gradientUnits="userSpaceOnUse" spreadMethod="pad" xlink:href="#linearGradient5817"/><linearGradient id="linearGradient13477" x1="0" x2="1" y1="0" y2="0" gradientTransform="matrix(-7.5123444,5.0242004,5.0242004,7.5123444,39.975677,39.921158)" gradientUnits="userSpaceOnUse" spreadMethod="pad" xlink:href="#linearGradient5841"/><linearGradient id="linearGradient13479" x1="0" x2="1" y1="0" y2="0" gradientTransform="matrix(-7.5105133,5.0229645,5.0229645,7.5105133,40.999466,41.453293)" gradientUnits="userSpaceOnUse" spreadMethod="pad" xlink:href="#linearGradient5865"/><linearGradient id="linearGradient13481" x1="0" x2="1" y1="0" y2="0" gradientTransform="matrix(-7.5132141,5.0247803,5.0247803,7.5132141,37.290894,35.906143)" gradientUnits="userSpaceOnUse" spreadMethod="pad" xlink:href="#linearGradient5889"/><linearGradient id="linearGradient13483" x1="0" x2="1" y1="0" y2="0" gradientTransform="matrix(-7.5122528,5.0241241,5.0241241,7.5122528,36.364624,34.523468)" gradientUnits="userSpaceOnUse" spreadMethod="pad" xlink:href="#linearGradient5913"/><linearGradient id="linearGradient13570" x1="0" x2="1" y1="0" y2="0" gradientTransform="matrix(-8.0570374,4.5579987,4.5579987,8.0570374,40.659759,36.91803)" gradientUnits="userSpaceOnUse" spreadMethod="pad" xlink:href="#linearGradient5817"/><linearGradient id="linearGradient13572" x1="0" x2="1" y1="0" y2="0" gradientTransform="matrix(-7.5123444,5.0242004,5.0242004,7.5123444,39.975677,39.921158)" gradientUnits="userSpaceOnUse" spreadMethod="pad" xlink:href="#linearGradient5841"/><linearGradient id="linearGradient13574" x1="0" x2="1" y1="0" y2="0" gradientTransform="matrix(-7.5105133,5.0229645,5.0229645,7.5105133,40.999466,41.453293)" gradientUnits="userSpaceOnUse" spreadMethod="pad" xlink:href="#linearGradient5865"/><linearGradient id="linearGradient13576" x1="0" x2="1" y1="0" y2="0" gradientTransform="matrix(-7.5132141,5.0247803,5.0247803,7.5132141,37.290894,35.906143)" gradientUnits="userSpaceOnUse" spreadMethod="pad" xlink:href="#linearGradient5889"/><linearGradient id="linearGradient13578" x1="0" x2="1" y1="0" y2="0" gradientTransform="matrix(-7.5122528,5.0241241,5.0241241,7.5122528,36.364624,34.523468)" gradientUnits="userSpaceOnUse" spreadMethod="pad" xlink:href="#linearGradient5913"/><linearGradient id="linearGradient13663" x1="0" x2="1" y1="0" y2="0" gradientTransform="matrix(-8.0570374,4.5579987,4.5579987,8.0570374,40.659759,36.91803)" gradientUnits="userSpaceOnUse" spreadMethod="pad" xlink:href="#linearGradient5817"/><linearGradient id="linearGradient13665" x1="0" x2="1" y1="0" y2="0" gradientTransform="matrix(-7.5123444,5.0242004,5.0242004,7.5123444,39.975677,39.921158)" gradientUnits="userSpaceOnUse" spreadMethod="pad" xlink:href="#linearGradient5841"/><linearGradient id="linearGradient13667" x1="0" x2="1" y1="0" y2="0" gradientTransform="matrix(-7.5105133,5.0229645,5.0229645,7.5105133,40.999466,41.453293)" gradientUnits="userSpaceOnUse" spreadMethod="pad" xlink:href="#linearGradient5865"/><linearGradient id="linearGradient13669" x1="0" x2="1" y1="0" y2="0" gradientTransform="matrix(-7.5132141,5.0247803,5.0247803,7.5132141,37.290894,35.906143)" gradientUnits="userSpaceOnUse" spreadMethod="pad" xlink:href="#linearGradient5889"/><linearGradient id="linearGradient13671" x1="0" x2="1" y1="0" y2="0" gradientTransform="matrix(-7.5122528,5.0241241,5.0241241,7.5122528,36.364624,34.523468)" gradientUnits="userSpaceOnUse" spreadMethod="pad" xlink:href="#linearGradient5913"/><linearGradient id="linearGradient13796" x1="0" x2="1" y1="0" y2="0" gradientTransform="matrix(-8.0570374,4.5579987,4.5579987,8.0570374,40.659759,36.91803)" gradientUnits="userSpaceOnUse" spreadMethod="pad" xlink:href="#linearGradient5817"/><linearGradient id="linearGradient13798" x1="0" x2="1" y1="0" y2="0" gradientTransform="matrix(-7.5123444,5.0242004,5.0242004,7.5123444,39.975677,39.921158)" gradientUnits="userSpaceOnUse" spreadMethod="pad" xlink:href="#linearGradient5841"/><linearGradient id="linearGradient13800" x1="0" x2="1" y1="0" y2="0" gradientTransform="matrix(-7.5105133,5.0229645,5.0229645,7.5105133,40.999466,41.453293)" gradientUnits="userSpaceOnUse" spreadMethod="pad" xlink:href="#linearGradient5865"/><linearGradient id="linearGradient13802" x1="0" x2="1" y1="0" y2="0" gradientTransform="matrix(-7.5132141,5.0247803,5.0247803,7.5132141,37.290894,35.906143)" gradientUnits="userSpaceOnUse" spreadMethod="pad" xlink:href="#linearGradient5889"/><linearGradient id="linearGradient13804" x1="0" x2="1" y1="0" y2="0" gradientTransform="matrix(-7.5122528,5.0241241,5.0241241,7.5122528,36.364624,34.523468)" gradientUnits="userSpaceOnUse" spreadMethod="pad" xlink:href="#linearGradient5913"/><linearGradient id="linearGradient13845" x1="0" x2="1" y1="0" y2="0" gradientTransform="matrix(-8.0570374,4.5579987,4.5579987,8.0570374,40.659759,36.91803)" gradientUnits="userSpaceOnUse" spreadMethod="pad" xlink:href="#linearGradient5817"/><linearGradient id="linearGradient13847" x1="0" x2="1" y1="0" y2="0" gradientTransform="matrix(-7.5123444,5.0242004,5.0242004,7.5123444,39.975677,39.921158)" gradientUnits="userSpaceOnUse" spreadMethod="pad" xlink:href="#linearGradient5841"/><linearGradient id="linearGradient13849" x1="0" x2="1" y1="0" y2="0" gradientTransform="matrix(-7.5105133,5.0229645,5.0229645,7.5105133,40.999466,41.453293)" gradientUnits="userSpaceOnUse" spreadMethod="pad" xlink:href="#linearGradient5865"/><linearGradient id="linearGradient13851" x1="0" x2="1" y1="0" y2="0" gradientTransform="matrix(-7.5132141,5.0247803,5.0247803,7.5132141,37.290894,35.906143)" gradientUnits="userSpaceOnUse" spreadMethod="pad" xlink:href="#linearGradient5889"/><linearGradient id="linearGradient13853" x1="0" x2="1" y1="0" y2="0" gradientTransform="matrix(-7.5122528,5.0241241,5.0241241,7.5122528,36.364624,34.523468)" gradientUnits="userSpaceOnUse" spreadMethod="pad" xlink:href="#linearGradient5913"/></defs><metadata id="metadata12867"/><g id="layer1" transform="translate(-186.03696,-503.5232)"><g id="g13755" transform="matrix(3.0038812,0,0,3.0038812,-552.1375,-1250.1166)"><g id="g5805" transform="matrix(2.8395743,0,0,-2.8395743,167.79412,721.62433)"><g id="g5807"><g id="g5813"><g id="g5815"><path id="path5827" style="fill:url(#linearGradient13845);stroke:none" d="M 31.857,44.548 C 28.234,40.926 28.039,35.176 31.262,31.32 l 0,0 c 0.837,1.096 1.983,2.36 3.389,3.348 l 0,0 c 1.097,0.77 2.62,1.543 3.844,1.658 l 0,0 c 1.16,0.11 2.884,-0.003 3.928,-0.504 l 0,0 c -0.817,0.837 -1.677,1.776 -2.099,2.339 l 0,0 c -0.547,0.73 -0.872,1.637 -0.872,2.621 l 0,0 c 0,2.41 1.95,4.366 4.355,4.366 l 0,0 c 0.581,0 1.134,-0.117 1.641,-0.323 l 0,0 c -1.876,1.731 -4.264,2.597 -6.652,2.597 l 0,0 c -2.511,0 -5.022,-0.958 -6.939,-2.874"/></g></g></g></g><g id="g5829" transform="matrix(2.8395743,0,0,-2.8395743,167.79412,721.62433)"><g id="g5831"><g id="g5837"><g id="g5839"><path id="path5851" style="fill:url(#linearGradient13847);stroke:none" d="m 32.161,44.836 6.95,-7.235 0.031,-0.011 -4.6,8.864 c -0.851,-0.41 -1.654,-0.948 -2.381,-1.618"/></g></g></g></g><g id="g5853" transform="matrix(2.8395743,0,0,-2.8395743,167.79412,721.62433)"><g id="g5855"><g id="g5861"><g id="g5863"><path id="path5875" style="fill:url(#linearGradient13849);stroke:none" d="m 37.386,47.318 1.773,-9.733 0.006,-0.004 10e-4,0 0.609,9.791 c -0.325,0.032 -0.651,0.047 -0.978,0.047 l 0,0 c -0.471,0 -0.943,-0.033 -1.411,-0.101"/></g></g></g></g><g id="g5877" transform="matrix(2.8395743,0,0,-2.8395743,167.79412,721.62433)"><g id="g5879"><g id="g5885"><g id="g5887"><path id="path5899" style="fill:url(#linearGradient13851);stroke:none" d="m 29.028,38.52 10.109,-0.943 -0.026,0.024 -9.478,3.523 C 29.311,40.282 29.108,39.406 29.028,38.52"/></g></g></g></g><g id="g5901" transform="matrix(2.8395743,0,0,-2.8395743,167.79412,721.62433)"><g id="g5903"><g id="g5909"><g id="g5911"><path id="path5923" style="fill:url(#linearGradient13853);stroke:none" d="m 29.086,36.197 c 0.099,-0.684 0.271,-1.36 0.516,-2.014 l 0,0 9.507,3.369 -10.023,-1.355 z"/></g></g></g></g><g id="g5925" transform="matrix(2.8395743,0,0,-2.8395743,167.79412,721.62433)"><g id="g5927" clip-path="url(#clipPath5929)"><g id="g5933" transform="translate(35.7459,31.8871)"><path id="path5935" style="fill:#909599;fill-opacity:1;fill-rule:nonzero;stroke:none" d="m 0,0 c 0,0 0.267,0.12 0.344,0.162 l 0.001,-1.866 0.337,0 0,2.195 L 0.628,0.527 0.61,0.518 C 0.365,0.397 0.112,0.282 -0.102,0.195 L 0,0 z"/></g><g id="g5937" transform="translate(37.5391,31.28)"><path id="path5939" style="fill:#909599;fill-opacity:1;fill-rule:nonzero;stroke:none" d="m 0,0 c 0.273,0 0.407,-0.142 0.407,-0.431 0,-0.296 -0.185,-0.488 -0.469,-0.488 -0.207,0 -0.347,0.138 -0.396,0.198 l -0.042,0.049 -0.081,-0.291 0.024,-0.013 c 0.12,-0.055 0.268,-0.113 0.488,-0.113 0.482,0 0.831,0.294 0.831,0.697 0,0.371 -0.286,0.477 -0.459,0.508 0.191,0.08 0.36,0.254 0.36,0.516 C 0.663,0.94 0.421,1.13 0.031,1.131 -0.3,1.133 -0.468,0.917 -0.468,0.917 l 0.146,-0.251 0.022,0.07 c 0.041,0.114 0.161,0.228 0.319,0.228 0.139,0 0.302,-0.092 0.302,-0.352 C 0.321,0.41 0.264,0.169 0,0.169 l -0.174,0.014 0,-0.207 c 0,0 0.097,0.026 0.174,0.024"/></g><g id="g5941" transform="translate(39.3755,31.2364)"><path id="path5943" style="fill:#909599;fill-opacity:1;fill-rule:nonzero;stroke:none" d="m 0,0 c -0.235,0 -0.35,0.155 -0.35,0.472 0,0.321 0.154,0.536 0.383,0.536 0.228,0 0.381,-0.183 0.381,-0.455 C 0.414,0.279 0.272,0 0,0 m -0.613,-0.609 0.089,-0.356 c 0,0 0.141,-0.081 0.337,-0.08 0.564,0.002 0.957,0.529 0.957,1.286 0,0.843 -0.513,0.934 -0.735,0.934 -0.429,0 -0.728,-0.289 -0.728,-0.703 0,-0.405 0.246,-0.657 0.642,-0.657 0.199,0 0.357,0.08 0.473,0.227 -0.024,-0.471 -0.209,-0.902 -0.595,-0.904 -0.309,-0.002 -0.44,0.253 -0.44,0.253"/></g></g></g><g id="g5945" transform="matrix(2.8395743,0,0,-2.8395743,167.79412,721.62433)"><g id="g5947" clip-path="url(#clipPath5949)"><g id="g5953" transform="translate(41.1712,30.3614)"><path id="path5955" style="fill:#909599;fill-opacity:1;fill-rule:nonzero;stroke:none" d="m 0,0 c -0.234,0 -0.389,0.197 -0.389,0.491 0,0.293 0.155,0.491 0.389,0.491 0.232,0 0.389,-0.198 0.389,-0.491 C 0.389,0.192 0.236,0 0,0 m -0.297,1.516 c 0,0.086 0.022,0.367 0.3,0.367 0.275,0 0.306,-0.256 0.306,-0.367 0,-0.085 -0.023,-0.366 -0.306,-0.366 -0.278,0 -0.3,0.281 -0.3,0.366 M 0.316,1.092 C 0.507,1.178 0.632,1.351 0.632,1.556 0.632,1.784 0.466,2.05 0,2.05 c -0.353,0 -0.622,-0.228 -0.622,-0.53 0,-0.225 0.155,-0.384 0.32,-0.444 -0.275,-0.108 -0.429,-0.318 -0.429,-0.601 0,-0.386 0.294,-0.645 0.731,-0.645 0.424,0 0.732,0.301 0.732,0.716 0,0.384 -0.282,0.509 -0.416,0.546"/></g><g id="g5957" transform="translate(31.3075,28.9209)"><path id="path5959" style="fill:#004b7d;fill-opacity:1;fill-rule:nonzero;stroke:none" d="m 0,0 c -0.284,0.25 -0.772,0.71 -1.209,1.275 -2.005,2.249 -4.293,8.145 -0.484,13.494 1.57,2.205 3.827,3.69 6.067,4.291 5.225,1.404 9.239,-1.066 11.077,-3.054 0.204,-0.222 0.176,-0.505 0.021,-0.635 -0.228,-0.192 -0.434,-0.092 -0.893,0.042 -0.717,0.207 -1.332,0.256 -1.995,0.171 -1.535,-0.195 -2.866,-1.618 -2.681,-3.607 0.169,-1.815 1.568,-3.126 2.551,-3.992 3.452,-3.041 2.297,-6.3 2.017,-7.015 -0.956,-2.431 -3.402,-4.145 -6.573,-4.145 -1.318,0 -3.22,0.341 -5.134,1.555 -0.074,0.032 -0.145,0.131 -0.056,0.295 0.146,0.369 0.757,1.446 1.02,1.759 0.951,-1.099 2.556,-2.134 4.338,-2.2 2.437,-0.088 4.006,1.23 4.583,2.904 0.646,1.881 -0.042,3.796 -1.862,5.525 -1.57,1.49 -2.971,2.871 -3.052,5.235 -0.105,3.028 2.532,4.826 4.983,4.706 C 12.792,16.6 9.33,19.098 4.889,17.61 2.714,16.882 1.412,15.598 0.788,14.869 0.694,14.755 0.752,14.669 0.786,14.624 0.854,14.525 2.364,12.418 2.364,12.418 l -2.724,0.626 c 0,0 -0.113,0.028 -0.169,-0.066 -0.866,-1.492 -2.142,-5.809 0.708,-9.74 0,0 2.426,3.844 7.244,4.171 C 7.744,7.43 7.703,7.316 7.493,7.24 3.188,5.658 1.49,2.501 0.393,0.066 0.326,-0.084 0.147,-0.128 0,0"/></g></g></g></g></g></svg>