<svg xmlns="http://www.w3.org/2000/svg" xmlns:xl="http://www.w3.org/1999/xlink" width="400" height="200" version="1.1" viewBox="327 281 400 200"><defs><marker id="StickArrow_Marker" stroke-linejoin="miter" stroke-miterlimit="10" color="#000" markerHeight="8" markerUnits="strokeWidth" markerWidth="10" orient="auto" overflow="visible" viewBox="-1 -4 10 8"><g><path fill="none" stroke="currentColor" stroke-width="1" d="M 8 0 L 0 0 M 0 -3 L 8 0 L 0 3"/></g></marker></defs><g id="Canvas_1" fill="none" fill-opacity="1" stroke="none" stroke-dasharray="none" stroke-opacity="1"><title>Canvas 1</title><g id="Canvas_1_Layer_1"><title>Layer 1</title><g id="Graphic_2"><rect width="124" height="38" x="371.022" y="318" fill="#b2d9ff"/><rect width="124" height="38" x="371.022" y="318" stroke="#000" stroke-linecap="round" stroke-linejoin="round" stroke-width="1"/><text fill="#000" transform="translate(376.0215 331.8528)"><tspan x="14.232" y="8" fill="#000" font-family="Arial" font-size="9">Set Hyperparameters</tspan></text></g><g id="Graphic_3"><rect width="124" height="38" x="371.022" y="376" fill="#b2d9ff"/><rect width="124" height="38" x="371.022" y="376" stroke="#000" stroke-linecap="round" stroke-linejoin="round" stroke-width="1"/><text fill="#000" transform="translate(376.0215 389.8528)"><tspan x="46.915" y="8" fill="#000" font-family="Arial" font-size="9">Train</tspan></text></g><g id="Graphic_4"><rect width="124" height="38" x="371.022" y="434" fill="#b2d9ff"/><rect width="124" height="38" x="371.022" y="434" stroke="#000" stroke-linecap="round" stroke-linejoin="round" stroke-width="1"/><text fill="#000" transform="translate(376.0215 447.8528)"><tspan x="39.488" y="8" fill="#000" font-family="Arial" font-size="9">Evaluate</tspan></text></g><g id="Line_5"><line x1="433.022" x2="433.022" y1="356" y2="366.1" stroke="#000" stroke-linecap="round" stroke-linejoin="round" stroke-width="1" marker-end="url(#StickArrow_Marker)"/></g><g id="Line_6"><line x1="433.022" x2="433.022" y1="414" y2="424.1" stroke="#000" stroke-linecap="round" stroke-linejoin="round" stroke-width="1" marker-end="url(#StickArrow_Marker)"/></g><g id="Line_7"><line x1="495.022" x2="549.078" y1="453" y2="453" stroke="#000" stroke-linecap="round" stroke-linejoin="round" stroke-width="1" marker-end="url(#StickArrow_Marker)"/></g><g id="Line_8"><path stroke="#000" stroke-linecap="round" stroke-linejoin="round" stroke-width="1" marker-end="url(#StickArrow_Marker)" d="M 521.88344 453 L 521.88344 443 L 521.4785 297 L 447.891 297.29217 L 442.891 297.29217"/></g><g id="Line_9"><line x1="432.978" x2="432.999" y1="281" y2="308.1" stroke="#000" stroke-linecap="round" stroke-linejoin="round" stroke-width="1" marker-end="url(#StickArrow_Marker)"/></g><g id="Graphic_10"><rect width="124" height="38" x="558.979" y="434" fill="#66bfff"/><rect width="124" height="38" x="558.979" y="434" stroke="#000" stroke-linecap="round" stroke-linejoin="round" stroke-width="1"/><text fill="#000" transform="translate(563.9785 447.8528)"><tspan x="42.992" y="8" fill="#000" font-family="Arial" font-size="9">Deploy</tspan></text></g><g id="Graphic_11"><text fill="#000" transform="translate(538.4785 343.5)"><tspan x="23.221" y="8" fill="#000" font-family="Arial" font-size="9">Loop until validation </tspan> <tspan x="10.483" y="18.294" fill="#000" font-family="Arial" font-size="9">performance is maximised</tspan></text></g></g></g></svg>